PathFileType	4	(X/Y/Z)	C:/Users/opensim2020/Desktop/walking_exp_matlab/subject06_walking23_straight_02.trc	
DataRate	CameraRate	NumFrames	NumMarkers	Units	OrigDataRate	OrigDataStartFrame	OrigNumFrames	
100.00	100.00	7	45	mm	100.00	1277	114	
Frame#	Time	LFHD			RFHD			LBHD			RBHD			C7			T10			CLAV			STRN			RBAK			LSHO			LUPA			LELB			LFRM			LWRA			LWRB			LFIN			RSHO			RUPA			RELB			RFRM			RWRA			RWRB			RFIN			LASI			RASI			LPSI			RPSI			LTHI			LKNE			LTIB			LANK			LHEE			LTOE			RTHI			RKNE			RTIB			RANK			RHEE			RTOE			*39			*40			*41			*42			*43			*44			
		X1	Y1	Z1	X2	Y2	Z2	X3	Y3	Z3	X4	Y4	Z4	X5	Y5	Z5	X6	Y6	Z6	X7	Y7	Z7	X8	Y8	Z8	X9	Y9	Z9	X10	Y10	Z10	X11	Y11	Z11	X12	Y12	Z12	X13	Y13	Z13	X14	Y14	Z14	X15	Y15	Z15	X16	Y16	Z16	X17	Y17	Z17	X18	Y18	Z18	X19	Y19	Z19	X20	Y20	Z20	X21	Y21	Z21	X22	Y22	Z22	X23	Y23	Z23	X24	Y24	Z24	X25	Y25	Z25	X26	Y26	Z26	X27	Y27	Z27	X28	Y28	Z28	X29	Y29	Z29	X30	Y30	Z30	X31	Y31	Z31	X32	Y32	Z32	X33	Y33	Z33	X34	Y34	Z34	X35	Y35	Z35	X36	Y36	Z36	X37	Y37	Z37	X38	Y38	Z38	X39	Y39	Z39	X40	Y40	Z40	X41	Y41	Z41	X42	Y42	Z42	X43	Y43	Z43	X44	Y44	Z44	X45	Y45	Z45	

1	0.000	-895.22485	809.53394	1660.37878	-1025.74023	788.50232	1660.49414	-921.09247	941.68970	1610.30127	-1048.33667	918.90283	1614.95459	-976.14630	934.82843	1454.32397	-985.25653	972.05316	1127.66504	-975.25507	823.39038	1379.19165	-969.87720	781.27295	1207.37317	-1057.76611	1005.94098	1286.14355	-814.77899	881.99573	1408.98975	-744.04895	885.58679	1206.84473	-733.80066	888.74347	1093.63513	-714.79669	838.48071	951.20886	-756.78271	751.31439	856.67621	-722.98853	810.77777	835.39532	-721.11505	748.75409	768.78003	-1135.65051	869.07739	1412.05737	-1229.73303	910.32910	1218.21301	-1246.49805	904.27936	1096.99072	-1266.53943	878.44897	980.37360	-1235.57239	803.80579	848.43134	-1277.94580	857.33575	844.87372	-1279.53430	812.68353	772.83533	-877.31604	802.21893	965.23926	-1095.09094	793.89697	978.69904	-907.83527	957.41766	989.50867	-1073.71997	944.91815	1002.12494	-829.53174	822.84894	642.94183	-853.60931	779.25421	486.49161	-864.75623	943.08655	304.54233	-903.13306	1055.16553	174.17178	-950.67645	1094.04187	185.72473	-902.59833	965.96497	60.77849	-1150.57654	835.57831	639.35101	-1121.59290	826.07458	514.67487	-1122.26880	888.02020	252.47397	-1073.47510	916.61792	68.85865	-1031.50366	959.74469	45.08311	-1065.83215	764.31287	32.96948	-966.08411	898.07068	1706.35156															 
2	0.010	-895.29510	796.03198	1660.46069	-1025.78137	774.69598	1660.77649	-921.70831	928.20129	1610.79370	-1049.01526	905.33594	1615.71619	-977.16589	921.56506	1454.63147	-986.55615	958.56323	1127.99036	-975.93561	810.27979	1379.58301	-970.88226	767.83588	1207.87524	-1059.40857	992.24792	1286.51404	-815.67670	869.59656	1409.25647	-744.58508	875.36267	1207.26343	-734.67511	879.61810	1094.14124	-714.16278	834.26990	950.21252	-754.81879	750.48688	851.87793	-721.28052	810.99274	833.34186	-718.60077	751.92792	764.12280	-1136.40723	855.45099	1412.77393	-1231.42224	894.70557	1219.00000	-1248.46106	887.55786	1097.83582	-1268.30701	858.89581	981.95923	-1236.51636	780.63013	852.26703	-1279.31274	833.93713	847.27448	-1280.21838	787.09039	776.30743	-878.55743	788.14288	966.16052	-1096.23035	780.93231	978.28076	-908.55188	943.59564	990.29047	-1074.55054	931.72369	1002.17615	-829.09943	803.48438	645.35913	-853.85480	757.38873	489.73843	-865.14581	914.77960	301.13885	-904.18231	1019.69183	165.14459	-952.73639	1058.29272	173.72849	-900.47876	923.74304	57.81600	-1150.81433	827.66382	638.46124	-1122.64966	820.78601	513.49921	-1122.39905	886.90289	252.50137	-1073.18945	916.53955	69.07616	-1031.11206	959.68719	45.53334	-1066.13623	764.25171	32.81445	-966.23041	884.18506	1706.85999															 
3	0.020	-895.39941	782.56305	1660.28613	-1025.81946	760.89819	1660.78662	-922.25049	914.79297	1610.94324	-1049.27344	891.42902	1616.07129	-978.19476	908.24170	1454.68030	-987.77924	945.04620	1127.90295	-976.57623	796.90668	1379.69897	-971.76599	754.37744	1208.06250	-1060.86182	978.61053	1286.48071	-816.50116	857.11481	1409.12622	-745.11932	865.17871	1207.27258	-734.86389	871.03101	1094.20313	-713.46185	830.00525	949.05328	-752.95599	749.90961	847.17786	-719.64233	811.20947	831.36853	-716.15405	755.11639	759.57751	-1137.15686	841.63776	1413.00378	-1233.03821	879.16168	1219.35083	-1250.38257	870.94598	1098.33057	-1270.01172	839.38318	983.31598	-1237.40564	757.48401	855.99561	-1280.47375	810.35645	849.42883	-1280.60547	761.34229	779.70551	-879.70667	773.86963	966.81116	-1097.24988	767.86389	977.61127	-909.14575	929.74207	990.64502	-1075.28162	918.60596	1001.91046	-828.37000	784.53320	647.54865	-854.03876	736.05365	492.79166	-866.17511	885.57452	297.09814	-905.28491	983.28516	155.62695	-954.51538	1021.70062	161.48689	-898.65472	881.07330	54.83333	-1151.25330	819.80701	637.81891	-1123.83496	815.29932	512.59973	-1122.72729	884.86407	252.31987	-1073.17786	916.37683	69.29347	-1030.83618	959.47583	45.84995	-1066.43640	764.17041	32.58733	-966.53564	870.52734	1706.99146															 
4	0.030	-895.47925	769.17749	1659.81409	-1025.93250	747.22369	1660.57031	-922.73700	901.35748	1610.72913	-1049.89734	877.90070	1616.08875	-979.10193	894.81775	1454.45508	-988.90637	931.54248	1127.41260	-977.23218	783.48883	1379.46753	-972.61945	740.97772	1207.96497	-1062.16553	964.99664	1286.07373	-817.25616	844.46423	1408.65576	-745.64594	854.88403	1206.96326	-735.14252	861.99445	1094.01404	-712.68097	825.75836	947.80707	-750.99683	749.05243	842.57263	-718.20599	811.43597	829.50757	-713.89038	758.34076	755.32092	-1137.86279	827.63446	1412.77783	-1234.63110	863.74799	1219.27295	-1252.33313	854.39410	1098.50269	-1271.67188	819.86169	984.39758	-1238.23438	734.41327	859.74603	-1281.25208	786.35919	851.24188	-1281.10535	735.73737	783.18488	-880.95929	759.94946	966.91071	-1098.18396	754.95117	976.64075	-909.53961	915.86102	990.60767	-1075.79480	905.75580	1001.40216	-827.66016	765.66217	649.46844	-854.02728	715.28247	495.45193	-866.81195	856.38782	292.53909	-906.38562	946.11145	145.89783	-956.00415	984.24329	149.19745	-897.14630	838.42584	51.59910	-1151.31213	811.68378	637.00555	-1124.85620	809.42682	511.70520	-1123.05518	882.06677	252.14847	-1073.33557	916.19873	69.59511	-1030.69531	959.13147	46.17477	-1066.73035	764.01825	32.38576	-966.75311	856.88434	1706.82263															 
5	0.040	-895.67322	755.77271	1659.09583	-1026.04358	733.56799	1660.10889	-923.23230	887.92291	1610.17322	-1050.13806	864.05023	1615.73022	-979.94690	881.33209	1453.91406	-989.87024	918.00684	1126.58801	-977.79169	770.17310	1378.92188	-973.47351	727.51990	1207.54504	-1063.29651	951.40894	1285.37170	-817.88940	831.66351	1407.86389	-746.16266	844.44952	1206.29565	-735.37158	852.95874	1093.56396	-711.97174	821.30060	946.45331	-749.09943	748.21478	838.14539	-716.46521	811.42242	827.60046	-711.74323	761.42773	751.40393	-1138.64282	814.05005	1412.36182	-1236.10803	848.54919	1218.83643	-1254.21472	837.80096	1098.34790	-1273.24500	800.35870	985.29382	-1238.92395	711.50446	863.38263	-1282.21326	762.89569	853.23419	-1281.62231	710.29706	786.72723	-882.18158	745.58575	966.86450	-1099.24670	742.17181	975.64215	-909.67987	901.88373	990.23254	-1076.05713	893.00134	1000.62372	-826.88745	747.06909	651.18048	-853.82727	694.98346	497.75381	-866.88098	827.31610	287.60434	-907.50934	908.19421	136.11908	-957.94287	945.65546	136.71741	-896.16077	795.20380	48.56806	-1151.29614	803.35327	636.20593	-1125.54309	802.91949	510.69138	-1123.44788	878.40039	251.77426	-1073.16724	915.71851	69.80486	-1030.63403	958.95850	46.67234	-1067.03918	763.88129	32.30362	-966.96869	843.27350	1706.32031															 
6	0.050	-895.85333	742.34668	1658.11243	-1026.14551	719.93085	1659.33057	-923.72827	874.44562	1609.28857	-1050.72131	850.53802	1615.04468	-980.70764	867.83673	1453.16553	-990.73840	904.55713	1125.58374	-978.33484	756.81036	1378.12952	-974.25610	714.09991	1206.75085	-1064.37524	937.89722	1284.44617	-818.47034	818.61261	1406.75488	-746.67108	833.82916	1205.38257	-735.57489	843.85266	1092.90430	-711.21564	816.81262	945.16351	-747.38770	747.84827	833.82642	-714.68616	811.12207	826.12805	-709.59198	764.40912	747.84735	-1139.32056	800.27264	1411.58411	-1237.39917	833.47333	1218.10510	-1255.99573	821.16895	1097.95032	-1274.75488	780.85822	986.07574	-1239.50159	688.63501	866.98431	-1282.92566	739.51257	855.01361	-1282.02539	684.93164	790.34534	-883.49469	731.36389	966.53412	-1100.36365	729.63208	974.46448	-909.61713	887.82538	989.61151	-1076.09583	880.24615	999.63171	-826.28223	729.95813	652.65320	-853.45953	675.32208	499.50299	-867.28680	797.74988	282.25885	-908.56842	869.54041	126.37427	-959.42395	906.35608	124.46482	-895.23279	751.40979	46.35537	-1151.95923	795.38977	635.43024	-1126.07275	796.06671	509.50394	-1123.51086	874.80389	251.47423	-1073.10547	915.14758	70.10246	-1030.59534	958.60858	47.28127	-1067.22827	763.65973	32.13852	-967.21045	829.70441	1705.48901															 
7	0.060	-896.02405	728.85114	1656.94861	-1026.30432	706.28040	1658.25378	-924.15417	860.93848	1608.11023	-1050.88086	836.61676	1613.93665	-981.30054	854.24426	1452.08154	-991.31915	891.04755	1124.32373	-978.84167	743.24927	1376.98889	-975.07141	700.76471	1205.65381	-1065.42529	924.38843	1283.33655	-819.00714	805.45734	1405.37549	-747.09076	822.88904	1204.25879	-735.72266	834.70862	1092.04163	-710.43842	812.22717	943.75934	-745.75165	747.12567	829.81970	-713.09546	810.69495	824.63287	-707.59045	767.03271	744.47540	-1139.85510	786.43994	1410.48608	-1238.61877	818.39001	1217.11133	-1257.70959	804.51373	1097.35034	-1276.11902	761.31409	986.66608	-1239.96765	666.37885	870.32916	-1283.64148	716.13861	856.83868	-1282.31238	659.65723	793.88318	-884.77136	717.13159	965.84216	-1101.39929	717.01678	972.90784	-909.33142	873.67609	988.61652	-1075.91382	867.44965	998.35443	-825.31775	711.89215	653.67828	-852.97900	656.14734	500.93784	-867.59204	768.04138	276.77533	-909.57568	829.90991	116.67979	-960.76117	866.47272	112.71922	-894.82062	707.36121	44.44222	-1151.99402	786.40588	634.28278	-1126.45874	789.25372	508.17166	-1123.45886	871.62891	251.17342	-1072.97327	914.55853	70.49833	-1030.25940	958.24377	47.95552	-1067.52063	763.35126	32.12183	-967.49347	816.16083	1704.35742															 
